<mxfile host="app.diagrams.net" modified="2021-03-28T23:49:33.128Z" agent="5.0 (Macintosh; Intel Mac OS X 10_15_4) AppleWebKit/537.36 (KHTML, like Gecko) Chrome/89.0.4389.90 Safari/537.36" etag="zTFQSN3R9_U9Bryj-syp" version="13.7.7" type="github">
  <diagram id="MlHolffn1Go9nw9LPtVV" name="Page-1">
    <mxGraphModel dx="1963" dy="641" grid="1" gridSize="10" guides="1" tooltips="1" connect="1" arrows="1" fold="1" page="1" pageScale="1" pageWidth="850" pageHeight="1100" math="0" shadow="0">
      <root>
        <mxCell id="0" />
        <mxCell id="1" parent="0" />
        <mxCell id="-7S7OA5Yvdlidq6Te_JZ-9" style="edgeStyle=orthogonalEdgeStyle;rounded=0;orthogonalLoop=1;jettySize=auto;html=1;exitX=0.5;exitY=1;exitDx=0;exitDy=0;entryX=0.5;entryY=0;entryDx=0;entryDy=0;" parent="1" source="-7S7OA5Yvdlidq6Te_JZ-1" target="-7S7OA5Yvdlidq6Te_JZ-2" edge="1">
          <mxGeometry relative="1" as="geometry" />
        </mxCell>
        <mxCell id="-7S7OA5Yvdlidq6Te_JZ-10" style="edgeStyle=orthogonalEdgeStyle;rounded=0;orthogonalLoop=1;jettySize=auto;html=1;exitX=0.5;exitY=1;exitDx=0;exitDy=0;entryX=0.5;entryY=0;entryDx=0;entryDy=0;" parent="1" source="-7S7OA5Yvdlidq6Te_JZ-1" target="-7S7OA5Yvdlidq6Te_JZ-4" edge="1">
          <mxGeometry relative="1" as="geometry" />
        </mxCell>
        <mxCell id="-7S7OA5Yvdlidq6Te_JZ-11" style="edgeStyle=orthogonalEdgeStyle;rounded=0;orthogonalLoop=1;jettySize=auto;html=1;exitX=0.5;exitY=1;exitDx=0;exitDy=0;entryX=0.5;entryY=0;entryDx=0;entryDy=0;" parent="1" source="-7S7OA5Yvdlidq6Te_JZ-1" target="-7S7OA5Yvdlidq6Te_JZ-6" edge="1">
          <mxGeometry relative="1" as="geometry" />
        </mxCell>
        <mxCell id="-7S7OA5Yvdlidq6Te_JZ-19" style="edgeStyle=orthogonalEdgeStyle;rounded=0;orthogonalLoop=1;jettySize=auto;html=1;exitX=0.5;exitY=1;exitDx=0;exitDy=0;entryX=0.5;entryY=0;entryDx=0;entryDy=0;" parent="1" source="-7S7OA5Yvdlidq6Te_JZ-1" target="-7S7OA5Yvdlidq6Te_JZ-18" edge="1">
          <mxGeometry relative="1" as="geometry" />
        </mxCell>
        <mxCell id="-7S7OA5Yvdlidq6Te_JZ-1" value="My Portfolio" style="rounded=0;whiteSpace=wrap;html=1;" parent="1" vertex="1">
          <mxGeometry x="-65" y="180" width="100" height="30" as="geometry" />
        </mxCell>
        <mxCell id="-7S7OA5Yvdlidq6Te_JZ-21" style="edgeStyle=orthogonalEdgeStyle;rounded=0;orthogonalLoop=1;jettySize=auto;html=1;exitX=0.5;exitY=1;exitDx=0;exitDy=0;shape=link;" parent="1" source="-7S7OA5Yvdlidq6Te_JZ-2" target="-7S7OA5Yvdlidq6Te_JZ-12" edge="1">
          <mxGeometry relative="1" as="geometry" />
        </mxCell>
        <mxCell id="-7S7OA5Yvdlidq6Te_JZ-2" value="Views" style="rounded=1;whiteSpace=wrap;html=1;fillColor=#dae8fc;strokeColor=#6c8ebf;fontStyle=1" parent="1" vertex="1">
          <mxGeometry x="-390" y="290" width="90" height="30" as="geometry" />
        </mxCell>
        <mxCell id="-7S7OA5Yvdlidq6Te_JZ-3" value="Desktop" style="rounded=1;whiteSpace=wrap;html=1;" parent="1" vertex="1">
          <mxGeometry x="20" y="400" width="90" height="20" as="geometry" />
        </mxCell>
        <mxCell id="nFnS_fEKN-pbl20juHfE-13" style="edgeStyle=orthogonalEdgeStyle;rounded=0;orthogonalLoop=1;jettySize=auto;html=1;exitX=0.5;exitY=1;exitDx=0;exitDy=0;entryX=0.5;entryY=0;entryDx=0;entryDy=0;shape=link;" edge="1" parent="1" source="-7S7OA5Yvdlidq6Te_JZ-4" target="nFnS_fEKN-pbl20juHfE-7">
          <mxGeometry relative="1" as="geometry" />
        </mxCell>
        <mxCell id="-7S7OA5Yvdlidq6Te_JZ-4" value="Functions/Scope" style="rounded=1;whiteSpace=wrap;html=1;fillColor=#dae8fc;strokeColor=#6c8ebf;fontStyle=1" parent="1" vertex="1">
          <mxGeometry x="-190" y="290" width="100" height="30" as="geometry" />
        </mxCell>
        <mxCell id="-7S7OA5Yvdlidq6Te_JZ-8" style="edgeStyle=orthogonalEdgeStyle;shape=link;rounded=0;orthogonalLoop=1;jettySize=auto;html=1;exitX=0.5;exitY=1;exitDx=0;exitDy=0;entryX=0.5;entryY=0;entryDx=0;entryDy=0;" parent="1" source="-7S7OA5Yvdlidq6Te_JZ-5" target="-7S7OA5Yvdlidq6Te_JZ-3" edge="1">
          <mxGeometry relative="1" as="geometry" />
        </mxCell>
        <mxCell id="-7S7OA5Yvdlidq6Te_JZ-5" value="Mobile" style="rounded=1;whiteSpace=wrap;html=1;" parent="1" vertex="1">
          <mxGeometry x="20" y="350" width="90" height="20" as="geometry" />
        </mxCell>
        <mxCell id="-7S7OA5Yvdlidq6Te_JZ-7" style="edgeStyle=orthogonalEdgeStyle;rounded=0;orthogonalLoop=1;jettySize=auto;html=1;exitX=0.5;exitY=1;exitDx=0;exitDy=0;entryX=0.5;entryY=0;entryDx=0;entryDy=0;shape=link;" parent="1" source="-7S7OA5Yvdlidq6Te_JZ-6" target="-7S7OA5Yvdlidq6Te_JZ-5" edge="1">
          <mxGeometry relative="1" as="geometry" />
        </mxCell>
        <mxCell id="-7S7OA5Yvdlidq6Te_JZ-6" value="Target Platforms" style="rounded=1;whiteSpace=wrap;html=1;fillColor=#dae8fc;strokeColor=#6c8ebf;fontStyle=1" parent="1" vertex="1">
          <mxGeometry x="20" y="290" width="100" height="30" as="geometry" />
        </mxCell>
        <mxCell id="-7S7OA5Yvdlidq6Te_JZ-15" style="edgeStyle=orthogonalEdgeStyle;rounded=0;orthogonalLoop=1;jettySize=auto;html=1;exitX=0;exitY=0.5;exitDx=0;exitDy=0;entryX=1;entryY=0.5;entryDx=0;entryDy=0;" parent="1" source="-7S7OA5Yvdlidq6Te_JZ-12" target="-7S7OA5Yvdlidq6Te_JZ-14" edge="1">
          <mxGeometry relative="1" as="geometry" />
        </mxCell>
        <mxCell id="-7S7OA5Yvdlidq6Te_JZ-22" style="edgeStyle=orthogonalEdgeStyle;shape=link;rounded=0;orthogonalLoop=1;jettySize=auto;html=1;exitX=0.5;exitY=1;exitDx=0;exitDy=0;entryX=0.5;entryY=0;entryDx=0;entryDy=0;" parent="1" source="-7S7OA5Yvdlidq6Te_JZ-12" target="-7S7OA5Yvdlidq6Te_JZ-16" edge="1">
          <mxGeometry relative="1" as="geometry" />
        </mxCell>
        <mxCell id="-7S7OA5Yvdlidq6Te_JZ-12" value="About Me" style="rounded=1;whiteSpace=wrap;html=1;" parent="1" vertex="1">
          <mxGeometry x="-405" y="380" width="120" height="30" as="geometry" />
        </mxCell>
        <mxCell id="-7S7OA5Yvdlidq6Te_JZ-14" value="&lt;ul&gt;&lt;li&gt;Attention grabbing header&lt;/li&gt;&lt;li&gt;A quick bio&amp;nbsp;&lt;/li&gt;&lt;li&gt;What I know development-wise&lt;/li&gt;&lt;li&gt;Possibly more personal information, possibly not since they should have my resume already&lt;/li&gt;&lt;li&gt;Other links at bottom: Github profile, LinkedIn&lt;/li&gt;&lt;/ul&gt;" style="rounded=1;whiteSpace=wrap;html=1;align=left;" parent="1" vertex="1">
          <mxGeometry x="-720" y="330" width="260" height="130" as="geometry" />
        </mxCell>
        <mxCell id="-7S7OA5Yvdlidq6Te_JZ-20" style="edgeStyle=orthogonalEdgeStyle;rounded=0;orthogonalLoop=1;jettySize=auto;html=1;exitX=0;exitY=0.5;exitDx=0;exitDy=0;entryX=1;entryY=0.5;entryDx=0;entryDy=0;" parent="1" source="-7S7OA5Yvdlidq6Te_JZ-16" target="-7S7OA5Yvdlidq6Te_JZ-17" edge="1">
          <mxGeometry relative="1" as="geometry" />
        </mxCell>
        <mxCell id="-7S7OA5Yvdlidq6Te_JZ-24" style="edgeStyle=orthogonalEdgeStyle;shape=link;rounded=0;orthogonalLoop=1;jettySize=auto;html=1;exitX=0.5;exitY=1;exitDx=0;exitDy=0;" parent="1" source="-7S7OA5Yvdlidq6Te_JZ-16" target="-7S7OA5Yvdlidq6Te_JZ-23" edge="1">
          <mxGeometry relative="1" as="geometry" />
        </mxCell>
        <mxCell id="-7S7OA5Yvdlidq6Te_JZ-16" value="Software Projects" style="rounded=1;whiteSpace=wrap;html=1;" parent="1" vertex="1">
          <mxGeometry x="-405" y="585" width="120" height="30" as="geometry" />
        </mxCell>
        <mxCell id="-7S7OA5Yvdlidq6Te_JZ-17" value="&lt;ul&gt;&lt;li&gt;One &lt;i&gt;Project Overview &lt;/i&gt;page and one&amp;nbsp;page for each project &lt;u style=&quot;font-weight: bold&quot;&gt;VS&lt;/u&gt;&amp;nbsp;one big page with detailed descriptions of each project&lt;/li&gt;&lt;li&gt;Each project detailed description should have the following&lt;/li&gt;&lt;ul&gt;&lt;li&gt;Scope of project&lt;/li&gt;&lt;li&gt;Intended users&lt;/li&gt;&lt;li&gt;Usage documentation&lt;/li&gt;&lt;li&gt;Future work/upcoming features&lt;/li&gt;&lt;li&gt;Frameworks used/target framework and platform&lt;/li&gt;&lt;li&gt;Github repo&lt;/li&gt;&lt;li&gt;Production access (website link, download, etc.)&lt;/li&gt;&lt;/ul&gt;&lt;/ul&gt;" style="rounded=1;whiteSpace=wrap;html=1;align=left;" parent="1" vertex="1">
          <mxGeometry x="-720" y="490" width="260" height="220" as="geometry" />
        </mxCell>
        <mxCell id="nFnS_fEKN-pbl20juHfE-4" style="edgeStyle=orthogonalEdgeStyle;rounded=0;orthogonalLoop=1;jettySize=auto;html=1;exitX=0.5;exitY=1;exitDx=0;exitDy=0;entryX=0.5;entryY=0;entryDx=0;entryDy=0;shape=link;" edge="1" parent="1" source="-7S7OA5Yvdlidq6Te_JZ-18" target="nFnS_fEKN-pbl20juHfE-2">
          <mxGeometry relative="1" as="geometry" />
        </mxCell>
        <mxCell id="-7S7OA5Yvdlidq6Te_JZ-18" value="Frameworks/Libraries" style="rounded=1;whiteSpace=wrap;html=1;fillColor=#dae8fc;strokeColor=#6c8ebf;fontStyle=1" parent="1" vertex="1">
          <mxGeometry x="180" y="290" width="130" height="30" as="geometry" />
        </mxCell>
        <mxCell id="nFnS_fEKN-pbl20juHfE-6" style="edgeStyle=orthogonalEdgeStyle;rounded=0;orthogonalLoop=1;jettySize=auto;html=1;exitX=0;exitY=0.5;exitDx=0;exitDy=0;entryX=1;entryY=0.5;entryDx=0;entryDy=0;" edge="1" parent="1" source="-7S7OA5Yvdlidq6Te_JZ-23" target="nFnS_fEKN-pbl20juHfE-1">
          <mxGeometry relative="1" as="geometry" />
        </mxCell>
        <mxCell id="-7S7OA5Yvdlidq6Te_JZ-23" value="Other Projects/Interests" style="rounded=1;whiteSpace=wrap;html=1;" parent="1" vertex="1">
          <mxGeometry x="-416.25" y="780" width="142.5" height="30" as="geometry" />
        </mxCell>
        <mxCell id="nFnS_fEKN-pbl20juHfE-1" value="TBD. Not sure if I should put any other personal projects, as they should be detailed on my resume. On the other hand, I could go much more into depth for each of them, as well as show pictures.&amp;nbsp;" style="rounded=1;whiteSpace=wrap;html=1;" vertex="1" parent="1">
          <mxGeometry x="-720" y="745" width="260" height="100" as="geometry" />
        </mxCell>
        <mxCell id="nFnS_fEKN-pbl20juHfE-5" style="edgeStyle=orthogonalEdgeStyle;shape=link;rounded=0;orthogonalLoop=1;jettySize=auto;html=1;exitX=0.5;exitY=1;exitDx=0;exitDy=0;entryX=0.5;entryY=0;entryDx=0;entryDy=0;" edge="1" parent="1" source="nFnS_fEKN-pbl20juHfE-2" target="nFnS_fEKN-pbl20juHfE-3">
          <mxGeometry relative="1" as="geometry" />
        </mxCell>
        <mxCell id="nFnS_fEKN-pbl20juHfE-2" value="Bootstrap 4" style="rounded=1;whiteSpace=wrap;html=1;" vertex="1" parent="1">
          <mxGeometry x="185" y="350" width="120" height="20" as="geometry" />
        </mxCell>
        <mxCell id="nFnS_fEKN-pbl20juHfE-3" value="JQuery" style="rounded=1;whiteSpace=wrap;html=1;" vertex="1" parent="1">
          <mxGeometry x="207.5" y="400" width="75" height="20" as="geometry" />
        </mxCell>
        <mxCell id="nFnS_fEKN-pbl20juHfE-14" style="edgeStyle=orthogonalEdgeStyle;shape=link;rounded=0;orthogonalLoop=1;jettySize=auto;html=1;exitX=0.5;exitY=1;exitDx=0;exitDy=0;entryX=0.5;entryY=0;entryDx=0;entryDy=0;" edge="1" parent="1" source="nFnS_fEKN-pbl20juHfE-7" target="nFnS_fEKN-pbl20juHfE-9">
          <mxGeometry relative="1" as="geometry" />
        </mxCell>
        <mxCell id="nFnS_fEKN-pbl20juHfE-7" value="&lt;b&gt;Showcase Personal Brand&lt;/b&gt;&lt;br&gt;This website is an opportunity to introduce a &quot;professional brand&quot; of what I can offer." style="rounded=1;whiteSpace=wrap;html=1;" vertex="1" parent="1">
          <mxGeometry x="-235" y="350" width="190" height="60" as="geometry" />
        </mxCell>
        <mxCell id="nFnS_fEKN-pbl20juHfE-9" value="&lt;b&gt;Show Project Overview&lt;/b&gt;&lt;br&gt;Most hiring managers probably do not spend a ton of time going through the details. This website is an opportunity to showcase important bullet points of experience I have." style="rounded=1;whiteSpace=wrap;html=1;" vertex="1" parent="1">
          <mxGeometry x="-235" y="440" width="190" height="100" as="geometry" />
        </mxCell>
        <mxCell id="nFnS_fEKN-pbl20juHfE-15" style="edgeStyle=orthogonalEdgeStyle;shape=link;rounded=0;orthogonalLoop=1;jettySize=auto;html=1;entryX=0.5;entryY=1;entryDx=0;entryDy=0;" edge="1" parent="1" source="nFnS_fEKN-pbl20juHfE-10" target="nFnS_fEKN-pbl20juHfE-9">
          <mxGeometry relative="1" as="geometry" />
        </mxCell>
        <mxCell id="nFnS_fEKN-pbl20juHfE-16" style="edgeStyle=orthogonalEdgeStyle;shape=link;rounded=0;orthogonalLoop=1;jettySize=auto;html=1;exitX=0.5;exitY=1;exitDx=0;exitDy=0;entryX=0.5;entryY=0;entryDx=0;entryDy=0;" edge="1" parent="1" source="nFnS_fEKN-pbl20juHfE-10" target="nFnS_fEKN-pbl20juHfE-11">
          <mxGeometry relative="1" as="geometry" />
        </mxCell>
        <mxCell id="nFnS_fEKN-pbl20juHfE-10" value="&lt;b&gt;Show Project Details&lt;/b&gt;&lt;br&gt;It&#39;s difficult to go into detail with limited space on a conventional one-page resume. This website is an opportunity to go into the details of each project I have worked on." style="rounded=1;whiteSpace=wrap;html=1;" vertex="1" parent="1">
          <mxGeometry x="-235" y="580" width="190" height="100" as="geometry" />
        </mxCell>
        <mxCell id="nFnS_fEKN-pbl20juHfE-17" style="edgeStyle=orthogonalEdgeStyle;shape=link;rounded=0;orthogonalLoop=1;jettySize=auto;html=1;exitX=0.5;exitY=1;exitDx=0;exitDy=0;entryX=0.5;entryY=0;entryDx=0;entryDy=0;" edge="1" parent="1" source="nFnS_fEKN-pbl20juHfE-11" target="nFnS_fEKN-pbl20juHfE-12">
          <mxGeometry relative="1" as="geometry" />
        </mxCell>
        <mxCell id="nFnS_fEKN-pbl20juHfE-11" value="&lt;b&gt;Display Documentation Skills&lt;/b&gt;&lt;br&gt;This website is an opportunity to showcase how well I can create documentation for software." style="rounded=1;whiteSpace=wrap;html=1;" vertex="1" parent="1">
          <mxGeometry x="-235" y="720" width="190" height="60" as="geometry" />
        </mxCell>
        <mxCell id="nFnS_fEKN-pbl20juHfE-12" value="&lt;b&gt;Display Planning Skills&lt;/b&gt;&lt;br&gt;This website is an opportunity to showcase planning and systems design skills, including the creation of diagrams such as this one." style="rounded=1;whiteSpace=wrap;html=1;" vertex="1" parent="1">
          <mxGeometry x="-235" y="820" width="190" height="90" as="geometry" />
        </mxCell>
      </root>
    </mxGraphModel>
  </diagram>
</mxfile>
